<svg xmlns="http://www.w3.org/2000/svg" xmlns:xlink="http://www.w3.org/1999/xlink" width="1920" zoomAndPan="magnify" viewBox="0 0 1440 809.999993" height="1080" preserveAspectRatio="xMidYMid meet" version="1.0"><defs><clipPath id="a4f89e4541"><path d="M 0 177 L 847.554688 177 L 847.554688 454.765625 L 0 454.765625 Z M 0 177 " clip-rule="nonzero"/></clipPath><clipPath id="0f261a4e31"><path d="M 0.351562 0 L 1439.648438 0 L 1439.648438 199.878906 L 0.351562 199.878906 Z M 0.351562 0 " clip-rule="nonzero"/></clipPath><clipPath id="83f848707e"><path d="M 563.015625 187 L 1440 187 L 1440 465.480469 L 563.015625 465.480469 Z M 563.015625 187 " clip-rule="nonzero"/></clipPath></defs><g clip-path="url(#a4f89e4541)"><path fill="#6f8f39" d="M 2.605469 179.179688 C 42.605469 182.410156 39.394531 182.511719 73.074219 178.402344 C 106.753906 174.292969 120.222656 182.199219 148.636719 185.855469 C 177.054688 189.507812 183.367188 186.488281 212.835938 182.167969 C 242.304688 177.851562 323.820312 186.539062 362.761719 186.6875 C 401.703125 186.839844 437.007812 185.472656 505.421875 182.535156 C 573.839844 179.597656 697.96875 183.421875 734.824219 180.476562 C 771.683594 177.535156 837.996094 177.628906 847.53125 202.84375 C 847.53125 202.84375 839.300781 429.617188 814.449219 429.617188 C 789.597656 429.617188 824.890625 338.4375 776.097656 338.4375 C 727.304688 338.4375 758.878906 384.21875 732.570312 381.113281 C 706.261719 378.011719 738.511719 339.261719 710.808594 338.4375 C 683.109375 337.613281 677.839844 373.527344 635.21875 371.070312 C 592.601562 368.617188 554.703125 326.421875 518.398438 340.046875 C 482.089844 353.671875 506.492188 386.332031 482.027344 386.332031 C 457.5625 386.332031 492.347656 341.289062 452.902344 341.289062 C 413.453125 341.289062 419.746094 371.679688 398.449219 372.914062 C 377.148438 374.148438 392.917969 340.667969 324.25 340.667969 C 240.574219 340.667969 312.855469 437.90625 271.578125 437.90625 C 230.300781 437.90625 319.457031 346.300781 221.601562 346.300781 C 160.035156 346.300781 171.085938 376.0625 126.882812 376.0625 C 82.679688 376.0625 70.046875 336.378906 21.140625 341.339844 C -27.765625 346.296875 -2.003906 454.792969 -27.53125 454.792969 C -46.855469 454.792969 -56.660156 316.03125 -60.292969 240.441406 L -61.992188 240.511719 L -61.992188 191.660156 C -62.023438 183.21875 -37.386719 175.976562 2.605469 179.179688 Z M 2.605469 179.179688 " fill-opacity="1" fill-rule="nonzero"/></g><g clip-path="url(#0f261a4e31)"><path fill="#6f8f39" d="M 0.351562 -25.765625 L 1439.648438 -25.765625 L 1439.648438 199.878906 L 0.351562 199.878906 Z M 0.351562 -25.765625 " fill-opacity="1" fill-rule="nonzero"/></g><g clip-path="url(#83f848707e)"><path fill="#6f8f39" d="M 627.675781 189.894531 C 667.675781 193.121094 664.464844 193.222656 698.144531 189.113281 C 731.824219 185.003906 745.289062 192.914062 773.707031 196.566406 C 802.125 200.222656 808.4375 197.199219 837.90625 192.882812 C 867.375 188.5625 948.890625 197.25 987.832031 197.402344 C 1026.773438 197.554688 1062.078125 196.1875 1130.492188 193.25 C 1198.910156 190.3125 1323.039062 194.136719 1359.894531 191.191406 C 1396.753906 188.246094 1463.066406 188.34375 1472.601562 213.554688 C 1472.601562 213.554688 1464.371094 440.328125 1439.519531 440.328125 C 1414.664062 440.328125 1449.960938 349.152344 1401.167969 349.152344 C 1352.375 349.152344 1383.949219 394.929688 1357.640625 391.828125 C 1331.332031 388.726562 1363.582031 349.976562 1335.878906 349.152344 C 1308.175781 348.328125 1302.910156 384.242188 1260.289062 381.785156 C 1217.671875 379.328125 1179.773438 337.132812 1143.46875 350.761719 C 1107.160156 364.386719 1131.5625 397.046875 1107.097656 397.046875 C 1082.632812 397.046875 1117.417969 352 1077.972656 352 C 1038.523438 352 1044.816406 382.394531 1023.515625 383.628906 C 1002.21875 384.863281 1017.988281 351.378906 949.320312 351.378906 C 865.644531 351.378906 937.921875 448.617188 896.644531 448.617188 C 855.371094 448.617188 944.527344 357.015625 846.667969 357.015625 C 785.105469 357.015625 796.152344 386.777344 751.953125 386.777344 C 707.75 386.777344 695.117188 347.09375 646.210938 352.050781 C 597.304688 357.007812 623.066406 465.503906 597.539062 465.503906 C 578.210938 465.503906 568.410156 326.742188 564.777344 251.152344 L 563.078125 251.222656 L 563.078125 202.375 C 563.046875 193.933594 587.683594 186.691406 627.675781 189.894531 Z M 627.675781 189.894531 " fill-opacity="1" fill-rule="nonzero"/></g></svg>