<svg xmlns="http://www.w3.org/2000/svg" xmlns:xlink="http://www.w3.org/1999/xlink" width="1366" zoomAndPan="magnify" viewBox="0 0 1024.5 366.749986" height="768" preserveAspectRatio="xMidYMid meet" version="1.0"><defs><clipPath id="6df5bc22cc"><path d="M 0.0976562 0 L 1023.902344 0 L 1023.902344 184.996094 L 0.0976562 184.996094 Z M 0.0976562 0 " clip-rule="nonzero"/></clipPath><clipPath id="74fe3add8c"><path d="M 0.0976562 110 L 809.976562 110 L 809.976562 360.125 L 0.0976562 360.125 Z M 0.0976562 110 " clip-rule="nonzero"/></clipPath><clipPath id="70489ade35"><path d="M 368 110 L 1023.902344 110 L 1023.902344 360.125 L 368 360.125 Z M 368 110 " clip-rule="nonzero"/></clipPath></defs><g clip-path="url(#6df5bc22cc)"><path fill="#6f8f39" d="M 0.0976562 -18.457031 L 1023.902344 -18.457031 L 1023.902344 184.996094 L 0.0976562 184.996094 Z M 0.0976562 -18.457031 " fill-opacity="1" fill-rule="nonzero"/></g><g clip-path="url(#74fe3add8c)"><path fill="#6f8f39" d="M 47.996094 111.976562 C 84.058594 114.890625 81.164062 114.980469 111.53125 111.273438 C 141.898438 107.570312 154.042969 114.699219 179.667969 117.996094 C 205.289062 121.289062 210.980469 118.566406 237.550781 114.671875 C 264.121094 110.777344 337.621094 118.613281 372.734375 118.75 C 407.847656 118.886719 439.679688 117.652344 501.367188 115.003906 C 563.054688 112.355469 674.980469 115.800781 708.210938 113.148438 C 741.445312 110.492188 801.238281 110.578125 809.835938 133.3125 C 809.835938 133.3125 802.414062 337.789062 780.003906 337.789062 C 757.597656 337.789062 789.417969 255.574219 745.425781 255.574219 C 701.429688 255.574219 729.902344 296.851562 706.179688 294.054688 C 682.457031 291.257812 711.535156 256.316406 686.558594 255.574219 C 661.578125 254.832031 656.828125 287.214844 618.402344 285 C 579.972656 282.785156 545.804688 244.738281 513.066406 257.023438 C 480.328125 269.3125 502.332031 298.757812 480.273438 298.757812 C 458.210938 298.757812 489.578125 258.144531 454.011719 258.144531 C 418.441406 258.144531 424.117188 285.546875 404.910156 286.660156 C 385.707031 287.773438 399.925781 257.585938 338.011719 257.585938 C 262.5625 257.585938 327.734375 345.261719 290.515625 345.261719 C 253.296875 345.261719 333.6875 262.664062 245.453125 262.664062 C 189.941406 262.664062 199.90625 289.5 160.050781 289.5 C 120.195312 289.5 108.804688 253.71875 64.707031 258.191406 C 20.609375 262.660156 43.839844 360.488281 20.820312 360.488281 C 3.394531 360.488281 -5.441406 235.371094 -8.71875 167.214844 L -10.25 167.277344 L -10.25 123.230469 C -10.277344 115.621094 11.9375 109.089844 47.996094 111.976562 Z M 47.996094 111.976562 " fill-opacity="1" fill-rule="nonzero"/></g><g clip-path="url(#70489ade35)"><path fill="#6f8f39" d="M 426.398438 111.976562 C 462.460938 114.890625 459.566406 114.980469 489.933594 111.273438 C 520.300781 107.570312 532.445312 114.699219 558.066406 117.996094 C 583.691406 121.289062 589.382812 118.566406 615.953125 114.671875 C 642.523438 110.777344 716.023438 118.613281 751.136719 118.75 C 786.246094 118.886719 818.082031 117.652344 879.769531 115.003906 C 941.457031 112.355469 1053.378906 115.800781 1086.613281 113.148438 C 1119.847656 110.492188 1179.640625 110.578125 1188.238281 133.3125 C 1188.238281 133.3125 1180.816406 337.789062 1158.40625 337.789062 C 1136 337.789062 1167.820312 255.574219 1123.828125 255.574219 C 1079.832031 255.574219 1108.304688 296.851562 1084.582031 294.054688 C 1060.859375 291.257812 1089.9375 256.316406 1064.957031 255.574219 C 1039.980469 254.832031 1035.230469 287.214844 996.800781 285 C 958.375 282.785156 924.203125 244.738281 891.46875 257.023438 C 858.730469 269.3125 880.734375 298.757812 858.675781 298.757812 C 836.613281 298.757812 867.980469 258.144531 832.410156 258.144531 C 796.84375 258.144531 802.519531 285.546875 783.3125 286.660156 C 764.105469 287.773438 778.328125 257.585938 716.414062 257.585938 C 640.964844 257.585938 706.136719 345.261719 668.917969 345.261719 C 631.699219 345.261719 712.089844 262.664062 623.855469 262.664062 C 568.34375 262.664062 578.308594 289.5 538.449219 289.5 C 498.59375 289.5 487.207031 253.71875 443.109375 258.191406 C 399.007812 262.660156 422.242188 360.488281 399.222656 360.488281 C 381.796875 360.488281 372.957031 235.371094 369.679688 167.214844 L 368.152344 167.277344 L 368.152344 123.230469 C 368.121094 115.621094 390.335938 109.089844 426.398438 111.976562 Z M 426.398438 111.976562 " fill-opacity="1" fill-rule="nonzero"/></g></svg>