<?xml version="1.0" encoding="UTF-8" standalone="no"?>
<!-- Created with Inkscape (http://www.inkscape.org/) -->

<svg
     xmlns:dc="http://purl.org/dc/elements/1.1/"
     xmlns:cc="http://creativecommons.org/ns#"
     xmlns:rdf="http://www.w3.org/1999/02/22-rdf-syntax-ns#"
     xmlns:svg="http://www.w3.org/2000/svg"
     xmlns="http://www.w3.org/2000/svg"
     xmlns:xlink="http://www.w3.org/1999/xlink"
     xmlns:sodipodi="http://sodipodi.sourceforge.net/DTD/sodipodi-0.dtd"
     xmlns:inkscape="http://www.inkscape.org/namespaces/inkscape"
     width="2441.61"
     height="2305.86"
     id="svg4595"
     version="1.1"
     inkscape:version="0.48.5 r10040"
     sodipodi:docname="GlitchRemixRemixHorizontallyTileableSlime.svg">
    <defs
         id="defs4597">
        <linearGradient
             y2="-231.175"
             x2="-360.808"
             y1="-95.6194"
             x1="-360.146"
             gradientTransform="translate(196.841,-371.918)"
             gradientUnits="userSpaceOnUse"
             id="linearGradient4557"
             xlink:href="#linearGradient4488-6"
             inkscape:collect="always" />
        <linearGradient
             inkscape:collect="always"
             id="linearGradient4488-6">
            <stop
                 style="stop-color:#55a11e;stop-opacity:1"
                 offset="0"
                 id="stop4490-7" />
            <stop
                 style="stop-color:#417d22;stop-opacity:1"
                 offset="1"
                 id="stop4492-5" />
        </linearGradient>
        <linearGradient
             y2="-231.175"
             x2="-360.808"
             y1="-95.6194"
             x1="-360.146"
             gradientTransform="translate(196.841,-371.918)"
             gradientUnits="userSpaceOnUse"
             id="linearGradient4557-5"
             xlink:href="#linearGradient4488-6-6"
             inkscape:collect="always" />
        <linearGradient
             inkscape:collect="always"
             id="linearGradient4488-6-6">
            <stop
                 style="stop-color:#55a11e;stop-opacity:1"
                 offset="0"
                 id="stop4490-7-2" />
            <stop
                 style="stop-color:#417d22;stop-opacity:1"
                 offset="1"
                 id="stop4492-5-9" />
        </linearGradient>
        <linearGradient
             y2="-231.175"
             x2="-360.808"
             y1="-95.6194"
             x1="-360.146"
             gradientTransform="translate(196.841,-371.918)"
             gradientUnits="userSpaceOnUse"
             id="linearGradient4557-2"
             xlink:href="#linearGradient4488-6-7"
             inkscape:collect="always" />
        <linearGradient
             inkscape:collect="always"
             id="linearGradient4488-6-7">
            <stop
                 style="stop-color:#55a11e;stop-opacity:1"
                 offset="0"
                 id="stop4490-7-0" />
            <stop
                 style="stop-color:#417d22;stop-opacity:1"
                 offset="1"
                 id="stop4492-5-93" />
        </linearGradient>
        <linearGradient
             y2="-231.175"
             x2="-360.808"
             y1="-95.6194"
             x1="-360.146"
             gradientTransform="translate(196.841,-371.918)"
             gradientUnits="userSpaceOnUse"
             id="linearGradient4557-0"
             xlink:href="#linearGradient4488-6-62"
             inkscape:collect="always" />
        <linearGradient
             inkscape:collect="always"
             id="linearGradient4488-6-62">
            <stop
                 style="stop-color:#55a11e;stop-opacity:1"
                 offset="0"
                 id="stop4490-7-6" />
            <stop
                 style="stop-color:#417d22;stop-opacity:1"
                 offset="1"
                 id="stop4492-5-1" />
        </linearGradient>
        <linearGradient
             inkscape:collect="always"
             xlink:href="#linearGradient4488-6-79"
             id="linearGradient4680"
             gradientUnits="userSpaceOnUse"
             gradientTransform="translate(196.841,-371.918)"
             x1="-360.146"
             y1="-95.6194"
             x2="-360.808"
             y2="-231.175" />
        <linearGradient
             inkscape:collect="always"
             id="linearGradient4488-6-79">
            <stop
                 style="stop-color:#55a11e;stop-opacity:1"
                 offset="0"
                 id="stop4490-7-20" />
            <stop
                 style="stop-color:#417d22;stop-opacity:1"
                 offset="1"
                 id="stop4492-5-2" />
        </linearGradient>
        <linearGradient
             y2="-231.175"
             x2="-360.808"
             y1="-95.6194"
             x1="-360.146"
             gradientTransform="matrix(9.48801,0,0,9.48801,4832.87,1833.51)"
             gradientUnits="userSpaceOnUse"
             id="linearGradient4697"
             xlink:href="#linearGradient4488-6-79"
             inkscape:collect="always" />
    </defs>
    <sodipodi:namedview
         id="base"
         pagecolor="#ffffff"
         bordercolor="#666666"
         borderopacity="1.0"
         inkscape:pageopacity="0.0"
         inkscape:pageshadow="2"
         inkscape:zoom="0.22"
         inkscape:cx="1316.93"
         inkscape:cy="1298.65"
         inkscape:document-units="px"
         inkscape:current-layer="layer1"
         showgrid="false"
         fit-margin-top="0"
         fit-margin-left="0"
         fit-margin-right="0"
         fit-margin-bottom="0" />
    <metadata
         id="metadata4600">
        <rdf:RDF>
            <cc:Work
                 rdf:about="">
                <dc:format>image/svg+xml</dc:format>
                <dc:type
                     rdf:resource="http://purl.org/dc/dcmitype/StillImage" />
                <dc:title></dc:title>
            </cc:Work>
        </rdf:RDF>
    </metadata>
    <g
         inkscape:label="Layer 1"
         inkscape:groupmode="layer"
         id="layer1"
         transform="translate(1027.88,469.134)">
        <g
             id="g3833">
            <path
                 id="use4576"
                 d="M 866.615,322.355 C 857.107,385.82 850.914,505.814 848.016,682.348 845.827,856.7 839.258,977.785 828.312,1045.62 810.797,1156.49 776.893,1212.31 726.558,1213.04 679.872,1213.76 648.136,1194.8 631.351,1156.14 619.674,1130.6 613.127,1087.92 611.668,1028.12 609.478,963.212 605.808,920.887 600.721,901.188 589.774,862.516 566.087,843.918 529.599,845.391 479.988,846.831 448.63,878.579 435.498,940.583 426.019,987.254 421.275,1099.98 421.275,1278.69 421.275,1375.7 427.831,1504.82 440.963,1666.04 438.06,1779.84 396.104,1836.73 315.134,1836.73 234.884,1836.73 190.394,1777.27 181.636,1658.38 187.481,1484.03 190.025,1341.06 189.303,1229.44 187.833,1063.85 180.915,946.048 168.506,876.027 147.365,753.47 106.141,693.288 44.8672,695.48 -20.7891,697.671 -64.5579,714.086 -86.437,744.723 -121.457,794.326 -138.963,900.467 -138.963,1063.13 -138.963,1192.24 -137.871,1339.24 -135.679,1504.09 -144.437,1604.76 -185.293,1656.19 -258.226,1658.38 -342.859,1660.56 -388.79,1597.83 -396.096,1470.17 -388.811,1280.5 -385.158,1123.68 -385.158,999.664 -385.158,811.462 -387.349,697.671 -391.724,658.277 -407.045,532.068 -446.8,468.261 -510.986,466.79 -555.477,465.348 -585.392,510.558 -600.715,602.469 -608.751,654.273 -614.216,755.662 -617.129,906.664 -620.042,1051.82 -626.977,1153.58 -637.918,1211.94 -656.144,1303.85 -690.063,1349.44 -739.676,1348.72 -800.228,1347.97 -833.408,1310.42 -839.253,1236.01 -834.149,1121.49 -832.316,1024.11 -833.778,943.867 -834.499,892.81 -841.814,744.344 -855.667,498.518 -868.799,269.459 -877.546,128.305 -881.929,75.0678 -887.766,-13.1974 -925.223,-105.906 -1027.88,-116.807 L -1027.88,-469.134 1413.73,-469.134 1413.73,-116.807 C 1290.35,-114.976 1282.76,68.4935 1282.76,68.4935 1261.14,406.342 1280.39,788.177 1303.57,1094.86 1305.32,1180.64 1257.07,1238.89 1179.55,1239.67 1105.88,1239.67 1067.58,1174.37 1064.66,1081.74 1075.61,930.013 1081.07,794.326 1081.07,674.691 1081.07,495.966 1078.17,383.628 1072.33,337.678 1057.72,228.973 1021.62,172.074 963.99,166.98 915.136,162.605 882.65,214.4 866.615,322.355 z"
                 style="fill:url(#linearGradient4697);fill-opacity:1;fill-rule:evenodd;stroke:none"
                 inkscape:connector-curvature="0"
                 inkscape:tile-x0="-420.861"
                 inkscape:tile-y0="-614.608"
                 sodipodi:nodetypes="cccccccccscscccccscccsccccccccccccccccccsccc" />
            <g
                 transform="translate(-2,0)"
                 id="g3826">
                <path
                     inkscape:connector-curvature="0"
                     style="fill:#f6ffd5;fill-opacity:1;fill-rule:evenodd;stroke:none"
                     d="M -839.812,324.5 C -828.359,519.66 -816.433,714.82 -809.064,910.186 -806.373,1013.41 -810.499,1116.65 -814.061,1219.78 -811.281,1251.17 -802.73,1284.9 -777.344,1305.84 -768.693,1312.89 -757.339,1318.06 -747.188,1320.41 -768.068,1307.31 -781.527,1284.71 -786.141,1260.68 -790.912,1237 -785.485,1212.89 -785.46,1189.03 -781.01,1097.46 -780.848,1005.57 -788.42,914.155 -800.687,728.582 -814.281,543.078 -830.906,357.844 -832.678,342.172 -835.432,326.392 -840.594,311.406 -840.333,315.771 -840.073,320.135 -839.812,324.5 z"
                     id="path3810" />
                <path
                     inkscape:connector-curvature="0"
                     style="fill:#f6ffd5;fill-opacity:1;fill-rule:evenodd;stroke:none"
                     d="M 1104.91,505.625 C 1108.03,670.171 1105.34,834.882 1094.06,999.097 1092.86,1023.43 1090.22,1047.77 1090.26,1072.12 1092.7,1111.11 1101.07,1151.62 1126.75,1182.31 1116.24,1156.33 1113.9,1127.38 1118.14,1099.83 1130.17,969.403 1134.39,838.285 1131.17,707.344 1130.2,655.785 1129.83,603.839 1122.11,552.814 1118.58,533.339 1113.14,514.106 1104.75,496.125 1104.8,499.292 1104.85,502.458 1104.91,505.625 z"
                     id="path3808" />
                <path
                     style="fill:#f6ffd5;fill-opacity:1;fill-rule:evenodd;stroke:none"
                     d="M -353.062,807.469 C -349.587,1022.22 -355.212,1236.99 -362.455,1451.59 -360.695,1497.54 -352.698,1544.98 -326.844,1583.84 -310.92,1606.57 -284.186,1621.45 -256.281,1623.09 -221.489,1626.65 -183.783,1613.68 -164.116,1583.59 -162.778,1581.22 -157.804,1575.85 -163.281,1578.28 -205.242,1588.79 -251.959,1584.71 -289.625,1562.72 -323.137,1541.76 -343.598,1504.57 -351.359,1466.56 -361.831,1419.55 -353.296,1371.21 -352.534,1323.66 -345.761,1158.18 -342.772,992.365 -350.594,826.875 -351.274,819.109 -352.031,811.405 -353.125,803.719 -353.104,804.969 -353.083,806.219 -353.062,807.469 z"
                     id="path3806"
                     inkscape:connector-curvature="0" />
                <path
                     style="fill:#f6ffd5;fill-opacity:1;fill-rule:evenodd;stroke:none"
                     d="M 208.413,997.597 C 218.451,1122.6 218.025,1248.13 217.165,1373.44 216.004,1466.7 212.782,1559.95 210.824,1653.2 214.485,1695.96 222.98,1740.79 250.532,1775.08 272.612,1801.44 309.226,1811.64 342.637,1807.12 370.078,1803.99 396.916,1789.1 410.677,1764.65 422.189,1746.34 428.101,1725.31 431.708,1704.22 396.668,1722.35 354.643,1722.79 316.953,1713.43 282.08,1703.48 253.096,1676.28 240.989,1642.15 228.651,1612.5 225.76,1579.73 228.572,1547.9 234.639,1388.44 240.573,1228.13 223.691,1069.16 220.444,1043.25 215.761,1017.46 208,992.589 208.138,994.258 208.275,995.927 208.413,997.597 z"
                     id="path3804"
                     inkscape:connector-curvature="0" />
                <path
                     inkscape:connector-curvature="0"
                     style="fill:#f6ffd5;fill-opacity:1;fill-rule:evenodd;stroke:none"
                     d="M 635.094,970.031 C 638.405,1024.89 635.204,1081.94 655.312,1133.94 659.642,1143.84 665.405,1153.37 672.781,1161.31 659.494,1115.72 664.378,1067.43 657.898,1020.85 656.013,1000.78 651.252,978.5 634.812,965.281 634.906,966.865 635,968.448 635.094,970.031 z"
                     id="use3004" />
            </g>
        </g>
    </g>
</svg>
